# xmcd CD database file
#
# Track frame offsets:
#	150
#	18478
#	33978
#	67958
#
# Disc length: 1148 seconds
#
# Revision: 0
# Processed by: cddbd v1.5PL3 Copyright (c) Steve Scherf et al.
# Submitted via: CDex 1.40Release
#
DISCID=29047a04
DTITLE=つじあやの - 桜の木の下で
DYEAR=2003
DGENRE=Pop
TTITLE0=桜の木の下で
TTITLE1=君がいればいい
TTITLE2=桜の木の下で Lumbini Remix
TTITLE3=桜の木の下で Inst
EXTD=YEAR: 2003 ID3G: 13
EXTT0=
EXTT1=
EXTT2=
EXTT3=
PLAYORDER=
